<svg width="48" height="48" viewBox="0 0 48 48" fill="none" xmlns="http://www.w3.org/2000/svg">
<path d="M15.85 40C15.5833 40 15.3333 39.9333 15.1 39.8C14.8667 39.6667 14.6833 39.4833 14.55 39.25L10.35 31.75H13.9L16 35.75H20.5V34.25H16.9L14.8 30.25H9.55L6.4 24.75C6.33333 24.6167 6.28333 24.4917 6.25 24.375C6.21666 24.2583 6.2 24.1333 6.2 24C6.2 23.8667 6.21666 23.7417 6.25 23.625C6.28333 23.5083 6.33333 23.3833 6.4 23.25L9.55 17.75H14.8L16.9 13.75H20.5V12.25H16L13.9 16.25H10.35L14.55 8.75C14.6833 8.51667 14.8667 8.33333 15.1 8.2C15.3333 8.06667 15.5833 8 15.85 8H21.75C22.1833 8 22.5417 8.14167 22.825 8.425C23.1083 8.70833 23.25 9.06667 23.25 9.5V18.25H19L17.5 19.75H23.25V26.25H18.35L16.4 22.25H11.5L10 23.75H15.4L17.4 27.75H23.25V38.5C23.25 38.9333 23.1083 39.2917 22.825 39.575C22.5417 39.8583 22.1833 40 21.75 40H15.85ZM26.25 40C25.8167 40 25.4583 39.8583 25.175 39.575C24.8917 39.2917 24.75 38.9333 24.75 38.5V27.75H30.6L32.6 23.75H38L36.5 22.25H31.6L29.65 26.25H24.75V19.75H30.5L29 18.25H24.75V9.5C24.75 9.06667 24.8917 8.70833 25.175 8.425C25.4583 8.14167 25.8167 8 26.25 8H32.15C32.4167 8 32.6667 8.06667 32.9 8.2C33.1333 8.33333 33.3167 8.51667 33.45 8.75L37.65 16.25H34.1L32 12.25H27.5V13.75H31.1L33.2 17.75H38.45L41.6 23.25C41.6667 23.3833 41.7167 23.5083 41.75 23.625C41.7833 23.7417 41.8 23.8667 41.8 24C41.8 24.1333 41.7833 24.2583 41.75 24.375C41.7167 24.4917 41.6667 24.6167 41.6 24.75L38.45 30.25H33.2L31.1 34.25H27.5V35.75H32L34.1 31.75H37.65L33.45 39.25C33.3167 39.4833 33.1333 39.6667 32.9 39.8C32.6667 39.9333 32.4167 40 32.15 40H26.25Z" fill="#61FF7E"/>
</svg>
